<svg xmlns="http://www.w3.org/2000/svg" width="1200" height="720" viewBox="0 0 1200 720" role="img">
<title>Stream Down</title>
<defs><marker id="arrow" markerWidth="10" markerHeight="10" refX="8" refY="5" orient="auto" markerUnits="strokeWidth"><path d="M0,0 L10,5 L0,10 Z" fill="#555"/></marker></defs>
<rect width="1200" height="720" fill="#fff"/>
<path d="M 600.0 74 L 600.0 105" fill="none" stroke="#555555" stroke-width="2" stroke-linecap="butt" stroke-linejoin="miter" marker-end="url(#arrow)"/>
<path d="M 600.0 173 L 600.0 240" fill="none" stroke="#555555" stroke-width="2" stroke-linecap="butt" stroke-linejoin="miter" marker-end="url(#arrow)"/>
<rect x="617.0" y="183" width="42" height="24" rx="6" fill="#fff" stroke="#c8cdd2"/><text x="638.0" y="200" text-anchor="middle" font-family="Arial, Helvetica, sans-serif" font-size="13" font-weight="700" fill="#222">YES</text>
<path d="M 600.0 173 L 600.0 375" fill="none" stroke="#555555" stroke-width="2" stroke-linecap="butt" stroke-linejoin="miter" marker-end="url(#arrow)"/>
<rect x="617.0" y="183" width="42" height="24" rx="6" fill="#fff" stroke="#c8cdd2"/><text x="638.0" y="200" text-anchor="middle" font-family="Arial, Helvetica, sans-serif" font-size="13" font-weight="700" fill="#222">NO</text>
<path d="M 450 274.0 L 392 274.0 L 392 274.0 L 305 274.0" fill="none" stroke="#555555" stroke-width="2" stroke-linecap="butt" stroke-linejoin="miter" marker-end="url(#arrow)"/>
<rect x="397.0" y="246.0" width="42" height="24" rx="6" fill="#fff" stroke="#c8cdd2"/><text x="418" y="263.0" text-anchor="middle" font-family="Arial, Helvetica, sans-serif" font-size="13" font-weight="700" fill="#222">YES</text>
<path d="M 450 274.0 L 392 274.0 L 392 362.0 L 305 362.0" fill="none" stroke="#555555" stroke-width="2" stroke-linecap="butt" stroke-linejoin="miter" marker-end="url(#arrow)"/>
<rect x="397.0" y="246.0" width="42" height="24" rx="6" fill="#fff" stroke="#c8cdd2"/><text x="418" y="263.0" text-anchor="middle" font-family="Arial, Helvetica, sans-serif" font-size="13" font-weight="700" fill="#222">NO</text>
<path d="M 600.0 443 L 600.0 510" fill="none" stroke="#555555" stroke-width="2" stroke-linecap="butt" stroke-linejoin="miter" marker-end="url(#arrow)"/>
<rect x="617.0" y="453" width="42" height="24" rx="6" fill="#fff" stroke="#c8cdd2"/><text x="638.0" y="470" text-anchor="middle" font-family="Arial, Helvetica, sans-serif" font-size="13" font-weight="700" fill="#222">YES</text>
<path d="M 750 409.0 L 808 409.0 L 808 476.5 L 895 476.5" fill="none" stroke="#555555" stroke-width="2" stroke-linecap="butt" stroke-linejoin="miter" marker-end="url(#arrow)"/>
<rect x="761.0" y="381.0" width="42" height="24" rx="6" fill="#fff" stroke="#c8cdd2"/><text x="782" y="398.0" text-anchor="middle" font-family="Arial, Helvetica, sans-serif" font-size="13" font-weight="700" fill="#222">NO</text>
<path d="M 750 544.0 L 808 544.0 L 808 476.5 L 895 476.5" fill="none" stroke="#555555" stroke-width="2" stroke-linecap="butt" stroke-linejoin="miter" marker-end="url(#arrow)"/>
<rect x="761.0" y="516.0" width="42" height="24" rx="6" fill="#fff" stroke="#c8cdd2"/><text x="782" y="533.0" text-anchor="middle" font-family="Arial, Helvetica, sans-serif" font-size="13" font-weight="700" fill="#222">YES</text>
<path d="M 750 544.0 L 808 544.0 L 808 564.5 L 895 564.5" fill="none" stroke="#555555" stroke-width="2" stroke-linecap="butt" stroke-linejoin="miter" marker-end="url(#arrow)"/>
<rect x="761.0" y="516.0" width="42" height="24" rx="6" fill="#fff" stroke="#c8cdd2"/><text x="782" y="533.0" text-anchor="middle" font-family="Arial, Helvetica, sans-serif" font-size="13" font-weight="700" fill="#222">NO</text>
<rect x="450" y="18" width="300" height="56" rx="20" fill="#cfe2f3" stroke="#555555" stroke-width="1.7"/><text x="600.0" y="51.0" text-anchor="middle" font-family="Arial, Helvetica, sans-serif" font-size="15" font-weight="700" fill="#17202a"><tspan x="600.0" y="42.0">Viewer reports the live stream</tspan><tspan x="600.0" y="60.0">will not start</tspan></text>
<rect x="450" y="105" width="300" height="68" rx="12" fill="#fff2cc" stroke="#555555" stroke-width="1.7"/><text x="600.0" y="144.0" text-anchor="middle" font-family="Arial, Helvetica, sans-serif" font-size="15" font-weight="700" fill="#17202a"><tspan x="600.0" y="126.0">Can you successfully start the</tspan><tspan x="600.0" y="144.0">live stream on the Station</tspan><tspan x="600.0" y="162.0">Website?</tspan></text>
<rect x="450" y="240" width="300" height="68" rx="12" fill="#fff2cc" stroke="#555555" stroke-width="1.7"/><text x="600.0" y="279.0" text-anchor="middle" font-family="Arial, Helvetica, sans-serif" font-size="15" font-weight="700" fill="#17202a"><tspan x="600.0" y="270.0">Can you successfully start the</tspan><tspan x="600.0" y="288.0">same stream in the Mobile App?</tspan></text>
<rect x="450" y="375" width="300" height="68" rx="12" fill="#fff2cc" stroke="#555555" stroke-width="1.7"/><text x="600.0" y="414.0" text-anchor="middle" font-family="Arial, Helvetica, sans-serif" font-size="15" font-weight="700" fill="#17202a"><tspan x="600.0" y="405.0">Does the Quickplay Dashboard show</tspan><tspan x="600.0" y="423.0">the streaming channel as Healthy?</tspan></text>
<rect x="450" y="510" width="300" height="68" rx="12" fill="#fff2cc" stroke="#555555" stroke-width="1.7"/><text x="600.0" y="549.0" text-anchor="middle" font-family="Arial, Helvetica, sans-serif" font-size="15" font-weight="700" fill="#17202a"><tspan x="600.0" y="540.0">Does the OTA Broadcast continue to</tspan><tspan x="600.0" y="558.0">air normally?</tspan></text>
<rect x="55" y="245.0" width="250" height="58" rx="12" fill="#eeeeee" stroke="#555555" stroke-width="1.7"/><text x="180.0" y="279.0" text-anchor="middle" font-family="Arial, Helvetica, sans-serif" font-size="14" font-weight="700" fill="#17202a"><tspan x="180.0" y="270.0">Collect viewer device,</tspan><tspan x="180.0" y="288.0">platform, and error details</tspan></text>
<rect x="55" y="333.0" width="250" height="58" rx="12" fill="#d9ead3" stroke="#555555" stroke-width="1.7"/><text x="180.0" y="367.0" text-anchor="middle" font-family="Arial, Helvetica, sans-serif" font-size="14" font-weight="700" fill="#17202a"><tspan x="180.0" y="367.0">Contact Digital Operations</tspan></text>
<rect x="895" y="447.5" width="250" height="58" rx="12" fill="#f4cccc" stroke="#555555" stroke-width="1.7"/><text x="1020.0" y="481.5" text-anchor="middle" font-family="Arial, Helvetica, sans-serif" font-size="14" font-weight="700" fill="#17202a"><tspan x="1020.0" y="481.5">Contact Engineering</tspan></text>
<rect x="895" y="535.5" width="250" height="58" rx="12" fill="#f4cccc" stroke="#555555" stroke-width="1.7"/><text x="1020.0" y="569.5" text-anchor="middle" font-family="Arial, Helvetica, sans-serif" font-size="14" font-weight="700" fill="#17202a"><tspan x="1020.0" y="569.5">Contact Master Control</tspan></text>
</svg>