<svg xmlns="http://www.w3.org/2000/svg" xmlns:xlink="http://www.w3.org/1999/xlink" width="2255" viewBox="0 0 2255 804" height="804" xmlns:ev="http://www.w3.org/2001/xml-events"><defs/><g transform="translate(5.500000,5.500000)" id="page1"><rect x="0" fill="#ffffff" width="2245" y="0" height="794"/><g id="group1"><path d="M.0,.0L1200.0,.0L1200.0,720.0L.0,720.0L.0,.0z" fill="#ffffff" fill-rule="nonzero" id="shape2"/><g transform="translate(590.000000,74.000000)" id="group3"><path d="M.0,.0L.0,31.0" fill="none" stroke="#555555" stroke-width="2" transform="translate(10.000000,0.000000)" id="shape4"/><path d="M.0,.0L20.0,10.0L.0,20.0L.0,.0z" fill="#555555" fill-rule="nonzero" transform="matrix(0.000000,1.000000,-1.000000,0.000000,20.000000,21.000000)" id="shape5"/></g><g transform="translate(590.000000,173.000000)" id="group6"><path d="M.0,.0L.0,67.0" fill="none" stroke="#555555" stroke-width="2" transform="translate(10.000000,0.000000)" id="shape7"/><path d="M.0,.0L20.0,10.0L.0,20.0L.0,.0z" fill="#555555" fill-rule="nonzero" transform="matrix(0.000000,1.000000,-1.000000,0.000000,20.000000,57.000000)" id="shape8"/></g><path d="M.0,6.0C.0,2.7,2.7,.0,6.0,.0L36.0,.0C39.3,.0,42.0,2.7,42.0,6.0L42.0,18.0C42.0,21.3,39.3,24.0,36.0,24.0L6.0,24.0C2.7,24.0,.0,21.3,.0,18.0L.0,6.0z" fill="#ffffff" fill-rule="nonzero" stroke="#c8cdd2" stroke-width="1" transform="translate(617.000000,183.000000)" id="shape9"/><g transform="translate(623.000000,187.000000)" id="shape10"><text xml:space="preserve" style="font-family:Arial,PingFang SC,Microsoft YaHei,Arial;font-size:10px"><tspan x="4.0" textLength="20.0" style="fill:#222222;font-weight:bold" y="14.0">YES</tspan></text></g><g transform="translate(590.000000,173.000000)" id="group11"><path d="M.0,.0L.0,202.0" fill="none" stroke="#555555" stroke-width="2" transform="translate(10.000000,0.000000)" id="shape12"/><path d="M.0,.0L20.0,10.0L.0,20.0L.0,.0z" fill="#555555" fill-rule="nonzero" transform="matrix(0.000000,1.000000,-1.000000,0.000000,20.000000,192.000000)" id="shape13"/></g><path d="M.0,6.0C.0,2.7,2.7,.0,6.0,.0L36.0,.0C39.3,.0,42.0,2.7,42.0,6.0L42.0,18.0C42.0,21.3,39.3,24.0,36.0,24.0L6.0,24.0C2.7,24.0,.0,21.3,.0,18.0L.0,6.0z" fill="#ffffff" fill-rule="nonzero" stroke="#c8cdd2" stroke-width="1" transform="translate(617.000000,183.000000)" id="shape14"/><g transform="translate(626.000000,187.000000)" id="shape15"><text xml:space="preserve" style="font-family:Arial,PingFang SC,Microsoft YaHei,Arial;font-size:10px"><tspan x="4.0" textLength="15.0" style="fill:#222222;font-weight:bold" y="14.0">NO</tspan></text></g><g transform="translate(295.000000,264.000000)" id="group16"><path d="M145.0,.0L87.0,.0L.0,.0" fill="none" stroke="#555555" stroke-width="2" transform="translate(10.000000,10.000000)" id="shape17"/><path d="M.0,.0L20.0,10.0L.0,20.0L.0,.0z" fill="#555555" fill-rule="nonzero" transform="matrix(-1.000000,0.000000,0.000000,-1.000000,20.000000,20.000000)" id="shape18"/></g><path d="M.0,6.0C.0,2.7,2.7,.0,6.0,.0L36.0,.0C39.3,.0,42.0,2.7,42.0,6.0L42.0,18.0C42.0,21.3,39.3,24.0,36.0,24.0L6.0,24.0C2.7,24.0,.0,21.3,.0,18.0L.0,6.0z" fill="#ffffff" fill-rule="nonzero" stroke="#c8cdd2" stroke-width="1" transform="translate(397.000000,246.000000)" id="shape19"/><g transform="translate(403.000000,250.000000)" id="shape20"><text xml:space="preserve" style="font-family:Arial,PingFang SC,Microsoft YaHei,Arial;font-size:10px"><tspan x="4.0" textLength="20.0" style="fill:#222222;font-weight:bold" y="14.0">YES</tspan></text></g><g transform="translate(295.000000,274.000000)" id="group21"><path d="M145.0,.0L87.0,.0L87.0,88.0L.0,88.0" fill="none" stroke="#555555" stroke-width="2" transform="translate(10.000000,0.000000)" id="shape22"/><path d="M.0,.0L20.0,10.0L.0,20.0L.0,.0z" fill="#555555" fill-rule="nonzero" transform="matrix(-1.000000,0.000000,0.000000,-1.000000,20.000000,98.000000)" id="shape23"/></g><path d="M.0,6.0C.0,2.7,2.7,.0,6.0,.0L36.0,.0C39.3,.0,42.0,2.7,42.0,6.0L42.0,18.0C42.0,21.3,39.3,24.0,36.0,24.0L6.0,24.0C2.7,24.0,.0,21.3,.0,18.0L.0,6.0z" fill="#ffffff" fill-rule="nonzero" stroke="#c8cdd2" stroke-width="1" transform="translate(397.000000,246.000000)" id="shape24"/><g transform="translate(406.000000,250.000000)" id="shape25"><text xml:space="preserve" style="font-family:Arial,PingFang SC,Microsoft YaHei,Arial;font-size:10px"><tspan x="4.0" textLength="15.0" style="fill:#222222;font-weight:bold" y="14.0">NO</tspan></text></g><g transform="translate(590.000000,443.000000)" id="group26"><path d="M.0,.0L.0,67.0" fill="none" stroke="#555555" stroke-width="2" transform="translate(10.000000,0.000000)" id="shape27"/><path d="M.0,.0L20.0,10.0L.0,20.0L.0,.0z" fill="#555555" fill-rule="nonzero" transform="matrix(0.000000,1.000000,-1.000000,0.000000,20.000000,57.000000)" id="shape28"/></g><path d="M.0,6.0C.0,2.7,2.7,.0,6.0,.0L36.0,.0C39.3,.0,42.0,2.7,42.0,6.0L42.0,18.0C42.0,21.3,39.3,24.0,36.0,24.0L6.0,24.0C2.7,24.0,.0,21.3,.0,18.0L.0,6.0z" fill="#ffffff" fill-rule="nonzero" stroke="#c8cdd2" stroke-width="1" transform="translate(617.000000,453.000000)" id="shape29"/><g transform="translate(623.000000,457.000000)" id="shape30"><text xml:space="preserve" style="font-family:Arial,PingFang SC,Microsoft YaHei,Arial;font-size:10px"><tspan x="4.0" textLength="20.0" style="fill:#222222;font-weight:bold" y="14.0">YES</tspan></text></g><g transform="translate(750.000000,409.000000)" id="group31"><path d="M.0,.0L58.0,.0L58.0,67.5L145.0,67.5" fill="none" stroke="#555555" stroke-width="2" id="shape32"/><path d="M.0,.0L20.0,10.0L.0,20.0L.0,.0z" fill="#555555" fill-rule="nonzero" transform="translate(135.000000,57.500000)" id="shape33"/></g><path d="M.0,6.0C.0,2.7,2.7,.0,6.0,.0L36.0,.0C39.3,.0,42.0,2.7,42.0,6.0L42.0,18.0C42.0,21.3,39.3,24.0,36.0,24.0L6.0,24.0C2.7,24.0,.0,21.3,.0,18.0L.0,6.0z" fill="#ffffff" fill-rule="nonzero" stroke="#c8cdd2" stroke-width="1" transform="translate(761.000000,381.000000)" id="shape34"/><g transform="translate(770.000000,385.000000)" id="shape35"><text xml:space="preserve" style="font-family:Arial,PingFang SC,Microsoft YaHei,Arial;font-size:10px"><tspan x="4.0" textLength="15.0" style="fill:#222222;font-weight:bold" y="14.0">NO</tspan></text></g><path d="M.0,6.0C.0,2.7,2.7,.0,6.0,.0L36.0,.0C39.3,.0,42.0,2.7,42.0,6.0L42.0,18.0C42.0,21.3,39.3,24.0,36.0,24.0L6.0,24.0C2.7,24.0,.0,21.3,.0,18.0L.0,6.0z" fill="#ffffff" fill-rule="nonzero" stroke="#c8cdd2" stroke-width="1" transform="translate(761.000000,516.000000)" id="shape36"/><g transform="translate(767.000000,520.000000)" id="shape37"><text xml:space="preserve" style="font-family:Arial,PingFang SC,Microsoft YaHei,Arial;font-size:10px"><tspan x="4.0" textLength="20.0" style="fill:#222222;font-weight:bold" y="14.0">YES</tspan></text></g><g transform="translate(750.000000,544.000000)" id="group38"><path d="M.0,.0L58.0,.0L58.0,20.5L145.0,20.5" fill="none" stroke="#555555" stroke-width="2" id="shape39"/><path d="M.0,.0L20.0,10.0L.0,20.0L.0,.0z" fill="#555555" fill-rule="nonzero" transform="translate(135.000000,10.500000)" id="shape40"/></g><path d="M.0,6.0C.0,2.7,2.7,.0,6.0,.0L36.0,.0C39.3,.0,42.0,2.7,42.0,6.0L42.0,18.0C42.0,21.3,39.3,24.0,36.0,24.0L6.0,24.0C2.7,24.0,.0,21.3,.0,18.0L.0,6.0z" fill="#ffffff" fill-rule="nonzero" stroke="#c8cdd2" stroke-width="1" transform="translate(761.000000,516.000000)" id="shape41"/><g transform="translate(770.000000,520.000000)" id="shape42"><text xml:space="preserve" style="font-family:Arial,PingFang SC,Microsoft YaHei,Arial;font-size:10px"><tspan x="4.0" textLength="15.0" style="fill:#222222;font-weight:bold" y="14.0">NO</tspan></text></g><path d="M.0,20.0C.0,9.0,9.0,.0,20.0,.0L280.0,.0C291.0,.0,300.0,9.0,300.0,20.0L300.0,36.0C300.0,47.0,291.0,56.0,280.0,56.0L20.0,56.0C9.0,56.0,.0,47.0,.0,36.0L.0,20.0z" fill="#cfe2f3" fill-rule="nonzero" stroke="#555555" stroke-width="1.700000047683716" transform="translate(450.000000,18.000000)" id="shape43"/><g transform="translate(517.000000,28.000000)" id="shape44"><text xml:space="preserve" style="font-family:Arial,PingFang SC,Microsoft YaHei,Arial;font-size:10px"><tspan x="4.0" textLength="156.0" style="fill:#17202a;font-size:11px;font-weight:bold" y="15.0">Viewer reports the live stream</tspan></text><text xml:space="preserve" style="font-family:Arial,PingFang SC,Microsoft YaHei,Arial;font-size:10px"><tspan x="50.2" textLength="64.7" style="fill:#17202a;font-size:11px;font-weight:bold" y="33.0">will not start</tspan></text></g><path d="M.0,12.0C.0,5.4,5.4,.0,12.0,.0L288.0,.0C294.6,.0,300.0,5.4,300.0,12.0L300.0,56.0C300.0,62.6,294.6,68.0,288.0,68.0L12.0,68.0C5.4,68.0,.0,62.6,.0,56.0L.0,12.0z" fill="#fff2cc" fill-rule="nonzero" stroke="#555555" stroke-width="1.700000047683716" transform="translate(450.000000,105.000000)" id="shape45"/><g transform="translate(516.000000,112.000000)" id="shape46"><text xml:space="preserve" style="font-family:Arial,PingFang SC,Microsoft YaHei,Arial;font-size:10px"><tspan x="4.1" textLength="158.7" style="fill:#17202a;font-size:11px;font-weight:bold" y="15.0">Can you successfully start the</tspan></text><text xml:space="preserve" style="font-family:Arial,PingFang SC,Microsoft YaHei,Arial;font-size:10px"><tspan x="16.2" textLength="133.7" style="fill:#17202a;font-size:11px;font-weight:bold" y="33.0">live stream on the Station</tspan></text><text xml:space="preserve" style="font-family:Arial,PingFang SC,Microsoft YaHei,Arial;font-size:10px"><tspan x="59.2" textLength="48.6" style="fill:#17202a;font-size:11px;font-weight:bold" y="51.0">Website?</tspan></text></g><path d="M.0,12.0C.0,5.4,5.4,.0,12.0,.0L288.0,.0C294.6,.0,300.0,5.4,300.0,12.0L300.0,56.0C300.0,62.6,294.6,68.0,288.0,68.0L12.0,68.0C5.4,68.0,.0,62.6,.0,56.0L.0,12.0z" fill="#fff2cc" fill-rule="nonzero" stroke="#555555" stroke-width="1.700000047683716" transform="translate(450.000000,240.000000)" id="shape47"/><g transform="translate(511.000000,256.000000)" id="shape48"><text xml:space="preserve" style="font-family:Arial,PingFang SC,Microsoft YaHei,Arial;font-size:10px"><tspan x="9.1" textLength="158.7" style="fill:#17202a;font-size:11px;font-weight:bold" y="15.0">Can you successfully start the</tspan></text><text xml:space="preserve" style="font-family:Arial,PingFang SC,Microsoft YaHei,Arial;font-size:10px"><tspan x="4.0" textLength="168.1" style="fill:#17202a;font-size:11px;font-weight:bold" y="33.0">same stream in the Mobile App?</tspan></text></g><path d="M.0,12.0C.0,5.4,5.4,.0,12.0,.0L288.0,.0C294.6,.0,300.0,5.4,300.0,12.0L300.0,56.0C300.0,62.6,294.6,68.0,288.0,68.0L12.0,68.0C5.4,68.0,.0,62.6,.0,56.0L.0,12.0z" fill="#fff2cc" fill-rule="nonzero" stroke="#555555" stroke-width="1.700000047683716" transform="translate(450.000000,375.000000)" id="shape49"/><g transform="translate(498.000000,391.000000)" id="shape50"><text xml:space="preserve" style="font-family:Arial,PingFang SC,Microsoft YaHei,Arial;font-size:10px"><tspan x="4.2" textLength="193.6" style="fill:#17202a;font-size:11px;font-weight:bold" y="15.0">Does the Quickplay Dashboard show</tspan></text><text xml:space="preserve" style="font-family:Arial,PingFang SC,Microsoft YaHei,Arial;font-size:10px"><tspan x="9.8" textLength="181.3" style="fill:#17202a;font-size:11px;font-weight:bold" y="33.0">the streaming channel as Healthy?</tspan></text></g><path d="M.0,12.0C.0,5.4,5.4,.0,12.0,.0L288.0,.0C294.6,.0,300.0,5.4,300.0,12.0L300.0,56.0C300.0,62.6,294.6,68.0,288.0,68.0L12.0,68.0C5.4,68.0,.0,62.6,.0,56.0L.0,12.0z" fill="#fff2cc" fill-rule="nonzero" stroke="#555555" stroke-width="1.700000047683716" transform="translate(450.000000,510.000000)" id="shape51"/><g transform="translate(500.000000,526.000000)" id="shape52"><text xml:space="preserve" style="font-family:Arial,PingFang SC,Microsoft YaHei,Arial;font-size:10px"><tspan x="3.8" textLength="190.5" style="fill:#17202a;font-size:11px;font-weight:bold" y="15.0">Does the OTA Broadcast continue to</tspan></text><text xml:space="preserve" style="font-family:Arial,PingFang SC,Microsoft YaHei,Arial;font-size:10px"><tspan x="65.0" textLength="69.0" style="fill:#17202a;font-size:11px;font-weight:bold" y="33.0">air normally?</tspan></text></g><path d="M.0,12.0C.0,5.4,5.4,.0,12.0,.0L238.0,.0C244.6,.0,250.0,5.4,250.0,12.0L250.0,46.0C250.0,52.6,244.6,58.0,238.0,58.0L12.0,58.0C5.4,58.0,.0,52.6,.0,46.0L.0,12.0z" fill="#eeeeee" fill-rule="nonzero" stroke="#555555" stroke-width="1.700000047683716" transform="translate(55.000000,245.000000)" id="shape53"/><g transform="translate(107.000000,256.000000)" id="shape54"><text xml:space="preserve" style="font-family:Arial,PingFang SC,Microsoft YaHei,Arial;font-size:10px"><tspan x="14.9" textLength="114.2" style="fill:#17202a;font-size:11px;font-weight:bold" y="15.0">Collect viewer device,</tspan></text><text xml:space="preserve" style="font-family:Arial,PingFang SC,Microsoft YaHei,Arial;font-size:10px"><tspan x="4.0" textLength="136.1" style="fill:#17202a;font-size:11px;font-weight:bold" y="33.0">platform, and error details</tspan></text></g><path d="M.0,12.0C.0,5.4,5.4,.0,12.0,.0L238.0,.0C244.6,.0,250.0,5.4,250.0,12.0L250.0,46.0C250.0,52.6,244.6,58.0,238.0,58.0L12.0,58.0C5.4,58.0,.0,52.6,.0,46.0L.0,12.0z" fill="#d9ead3" fill-rule="nonzero" stroke="#555555" stroke-width="1.700000047683716" transform="translate(55.000000,333.000000)" id="shape55"/><g transform="translate(106.000000,353.000000)" id="shape56"><text xml:space="preserve" style="font-family:Arial,PingFang SC,Microsoft YaHei,Arial;font-size:10px"><tspan x="4.2" textLength="138.6" style="fill:#17202a;font-size:11px;font-weight:bold" y="15.0">Contact Digital Operations</tspan></text></g><path d="M.0,12.0C.0,5.4,5.4,.0,12.0,.0L238.0,.0C244.6,.0,250.0,5.4,250.0,12.0L250.0,46.0C250.0,52.6,244.6,58.0,238.0,58.0L12.0,58.0C5.4,58.0,.0,52.6,.0,46.0L.0,12.0z" fill="#f4cccc" fill-rule="nonzero" stroke="#555555" stroke-width="1.700000047683716" transform="translate(895.000000,447.500000)" id="shape57"/><g transform="translate(961.000000,467.000000)" id="shape58"><text xml:space="preserve" style="font-family:Arial,PingFang SC,Microsoft YaHei,Arial;font-size:10px"><tspan x="3.8" textLength="107.5" style="fill:#17202a;font-size:11px;font-weight:bold" y="15.0">Contact Engineering</tspan></text></g><path d="M.0,12.0C.0,5.4,5.4,.0,12.0,.0L238.0,.0C244.6,.0,250.0,5.4,250.0,12.0L250.0,46.0C250.0,52.6,244.6,58.0,238.0,58.0L12.0,58.0C5.4,58.0,.0,52.6,.0,46.0L.0,12.0z" fill="#f4cccc" fill-rule="nonzero" stroke="#555555" stroke-width="1.700000047683716" transform="translate(895.000000,535.500000)" id="shape59"/><g transform="translate(954.000000,555.000000)" id="shape60"><text xml:space="preserve" style="font-family:Arial,PingFang SC,Microsoft YaHei,Arial;font-size:10px"><tspan x="3.8" textLength="121.5" style="fill:#17202a;font-size:11px;font-weight:bold" y="15.0">Contact Master Control</tspan></text></g></g></g></svg>